<svg xmlns="http://www.w3.org/2000/svg" viewBox="0 0 38 57" fill="none"><path d="M19 28.5C19 25.9 16.9 23.8 14.3 23.8H9.5V33.3H14.3C16.9 33.3 19 31.1 19 28.5Z" fill="#1ABCFE"/><path d="M9.5 0V9.5H14.3C16.9 9.5 19 7.4 19 4.8C19 2.2 16.9 0.1 14.3 0.1L9.5 0Z" fill="#F24E1E"/><path d="M19 4.8V14.3H23.8C26.4 14.3 28.5 12.2 28.5 9.6C28.5 7 26.4 4.9 23.8 4.9L19 4.8Z" fill="#FF7262"/><path d="M19 23.8V33.3H23.8C26.4 33.3 28.5 31.2 28.5 28.6C28.5 26 26.4 23.9 23.8 23.9L19 23.8Z" fill="#A259FF"/><path d="M9.5 38.1V47.6C9.5 50.2 11.6 52.3 14.2 52.3C16.8 52.3 18.9 50.2 18.9 47.6V38.1H9.5Z" fill="#10CF7E"/></svg>
