<svg xmlns="http://www.w3.org/2000/svg" viewBox="0 0 24 24"><path d="M5.042 15.165a2.528 2.528 0 0 1-2.52 2.523A2.528 2.528 0 0 1 0 15.165a2.527 2.527 0 0 1 2.522-2.52h2.52v2.52z" fill="#36C5F0"/><path d="M6.313 15.165a2.527 2.527 0 0 1 2.521-2.52h6.313a2.528 2.528 0 1 1 0 5.043H8.834a2.528 2.528 0 0 1-2.521-2.523z" fill="#36C5F0"/><path d="M8.834 5.042a2.528 2.528 0 0 1-2.521-2.52A2.528 2.528 0 0 1 8.834 0a2.527 2.527 0 0 1 2.521 2.522v2.52h-2.521z" fill="#2EB67D"/><path d="M8.834 6.313a2.527 2.527 0 0 1 2.521 2.521v6.313a2.528 2.528 0 1 1-5.043 0V8.834a2.528 2.528 0 0 1 2.522-2.521z" fill="#2EB67D"/><path d="M18.958 8.834a2.528 2.528 0 0 1 2.522-2.52A2.528 2.528 0 0 1 24 8.834a2.527 2.527 0 0 1-2.522 2.522h-2.52v-2.522z" fill="#ECB22E"/><path d="M17.687 8.834a2.528 2.528 0 0 1-2.522 2.522h-6.313a2.528 2.528 0 1 1 0-5.043h6.313a2.528 2.528 0 0 1 2.522 2.521z" fill="#ECB22E"/><path d="M15.165 18.958a2.528 2.528 0 0 1 2.522 2.522A2.528 2.528 0 0 1 15.165 24a2.527 2.527 0 0 1-2.522-2.52v-2.522h2.522z" fill="#E01E5A"/><path d="M15.165 17.687a2.527 2.527 0 0 1-2.521-2.521V8.834a2.528 2.528 0 1 1 5.043 0v6.331a2.528 2.528 0 0 1-2.522 2.522z" fill="#E01E5A"/></svg>
